<?xml version="1.0" encoding="UTF-8" standalone="no"?>
<!-- Created with Inkscape (http://www.inkscape.org/) -->

<svg
   width="210mm"
   height="297mm"
   viewBox="0 0 210 297"
   version="1.1"
   id="svg1"
   inkscape:version="1.3 (1:1.3+202307231459+0e150ed6c4)"
   sodipodi:docname="rushguitarslogo.svg"
   xmlns:inkscape="http://www.inkscape.org/namespaces/inkscape"
   xmlns:sodipodi="http://sodipodi.sourceforge.net/DTD/sodipodi-0.dtd"
   xmlns="http://www.w3.org/2000/svg"
   xmlns:svg="http://www.w3.org/2000/svg">
  <sodipodi:namedview
     id="namedview1"
     pagecolor="#ffffff"
     bordercolor="#666666"
     borderopacity="1.0"
     inkscape:showpageshadow="2"
     inkscape:pageopacity="0.0"
     inkscape:pagecheckerboard="0"
     inkscape:deskcolor="#d1d1d1"
     inkscape:document-units="mm"
     inkscape:zoom="0.89486509"
     inkscape:cx="414.58763"
     inkscape:cy="54.756857"
     inkscape:window-width="1848"
     inkscape:window-height="1016"
     inkscape:window-x="72"
     inkscape:window-y="27"
     inkscape:window-maximized="1"
     inkscape:current-layer="layer1"
     showgrid="false" />
  <defs
     id="defs1">
    <rect
       x="-167.41879"
       y="-82.175659"
       width="1751.2787"
       height="499.99499"
       id="rect4" />
    <rect
       x="416.38711"
       y="132.09651"
       width="147.87096"
       height="196.42889"
       id="rect3" />
    <rect
       x="634.07612"
       y="298.58505"
       width="239.12535"
       height="136.39559"
       id="rect2" />
    <rect
       x="70.364314"
       y="71.356767"
       width="375.68522"
       height="69.721072"
       id="rect1" />
  </defs>
  <g
     inkscape:label="Layer 1"
     inkscape:groupmode="layer"
     id="layer1">
    <text
       xml:space="preserve"
       transform="matrix(0.26458333,0,0,0.11210393,0,8.9156856)"
       id="text2"
       style="font-style:normal;font-variant:normal;font-weight:normal;font-stretch:normal;font-size:14.6667px;line-height:1.25;font-family:'Lohit Tamil Classical';-inkscape-font-specification:'Lohit Tamil Classical';letter-spacing:0px;word-spacing:0px;white-space:pre;shape-inside:url(#rect2);fill:#000000;fill-opacity:1;stroke:none" />
    <text
       xml:space="preserve"
       transform="matrix(0.26458333,0,0,0.11210393,0,8.9156856)"
       id="text3"
       style="font-style:normal;font-variant:normal;font-weight:normal;font-stretch:normal;font-size:14.6667px;line-height:1.25;font-family:'Lohit Tamil Classical';-inkscape-font-specification:'Lohit Tamil Classical';letter-spacing:0px;word-spacing:0px;white-space:pre;shape-inside:url(#rect3);fill:#000000;fill-opacity:1;stroke:none" />
    <text
       xml:space="preserve"
       transform="scale(0.26458333)"
       id="text4"
       style="fill:black;fill-opacity:1;stroke:none;font-family:'Lohit Tamil Classical';font-style:normal;font-weight:normal;font-size:14.66666667px;line-height:1.25;letter-spacing:0px;word-spacing:0px;-inkscape-font-specification:'Lohit Tamil Classical';font-stretch:normal;font-variant:normal;white-space:pre;shape-inside:url(#rect4)" />
    <path
       id="rect11-8"
       style="fill:#32808b;stroke:#ffffff;stroke-width:1.63956451;stroke-linecap:round;stroke-linejoin:round;paint-order:stroke fill markers;stroke-dasharray:none"
       inkscape:transform-center-x="6.0718178"
       inkscape:transform-center-y="12.964558"
       transform="matrix(-0.13556088,0.99076902,-0.78361733,-0.62124382,0,0)"
       d="m -139.47075,-196.41977 c 0.97816,0 1.76562,4.46 1.76562,10 v 15.17045 c 0,5.54 -0.78746,10 -1.76562,10 -0.97816,0 -1.76562,-4.46 -1.76562,-10 v -15.17045 c 0,-5.54 0.78746,-10 1.76562,-10 z m -26.153,10.13916 c -0.35959,-0.86792 4.30947,-0.33806 10.46874,1.18801 l 24.82788,6.15154 c 6.15928,1.52607 11.40732,3.45335 11.76692,4.32127 0.35959,0.8679 -4.30947,0.33804 -10.46875,-1.18803 l -24.82788,-6.15154 c -6.15927,-1.52607 -11.40732,-3.45335 -11.76691,-4.32125 z m 121.384444,161.561295 q 0.554638,-0.952698 1.542486,-2.408715 0.905594,-1.495333 2.19661,-3.11089 1.239053,-1.606567 2.716248,-3.200783 1.446904,-1.642525 2.980235,-2.871626 l 3.210737,5.120531 q -1.36882,1.307735 -2.668452,2.817689 -1.329923,1.461647 -2.421692,2.93564 -1.143745,1.482986 -2.027667,2.921023 -0.91421,1.389731 -1.533869,2.514319 0.445729,0.619001 0.869788,1.295297 0.39377,0.62799 0.817829,1.304286 l 2.635227,4.2027 14.082205,-2.436133 2.938128,4.68577 -35.491311,6.1397741 q -1.761528,-1.8906894 -3.431918,-4.2790659 -1.752643,-2.4276932 -3.024822,-4.4565842 -4.422335,-7.052807 -3.86636,-11.218549 0.525685,-4.214049 6.189745,-5.193896 3.585507,-0.62027 7.252465,0.726603 3.636668,1.298567 7.034388,4.51261 z m -12.435628,10.022677 q 1.877977,2.995027 3.033438,4.562186 l 13.562566,-2.346239 -2.090007,-3.333175 q -1.514498,-2.415344 -2.985916,-4.302675 -1.471419,-1.887328 -3.016742,-3.065762 -1.575612,-1.226741 -3.329059,-1.72661 -1.805409,-0.490878 -3.987891,-0.113322 -2.026591,0.350588 -2.923303,1.308916 -0.89671,0.958329 -0.888628,2.349149 -0.02221,1.342514 0.726157,3.087192 0.718076,1.696371 1.899385,3.58034 z m 1.202064,-53.200218 q 1.384999,1.47391 3.458038,3.953264 2.042752,2.431052 4.132762,5.76423 1.817399,2.898417 2.175892,5.031814 0.306543,2.142398 -0.599046,3.637727 -0.905602,1.495332 -2.806853,2.413257 -1.953215,0.926915 -4.7073,1.403355 l -15.173447,2.624911 -2.816969,-4.492546 14.13417,-2.445122 q 4.936568,-0.853996 6.158379,-2.671769 1.221825,-1.817775 -0.928759,-5.247559 -0.45435,-0.724604 -0.990913,-1.488543 -0.536555,-0.763925 -1.012666,-1.431208 -0.528037,-0.658315 -0.913147,-1.180714 -0.467454,-0.561696 -0.722775,-0.785252 l -22.812139,3.946357 -2.81697,-4.492546 z m -15.594816,-20.09402 q -1.726529,-2.753495 -3.32381,-3.922928 -1.627583,-1.217762 -3.342378,-0.921113 -1.766782,0.305642 -1.988225,1.789717 -0.221448,1.484076 0.357437,4.703846 0.285127,1.557068 0.509685,3.017544 0.142299,1.42115 -0.135292,2.540101 -0.277582,1.118963 -1.161235,1.914392 -0.883654,0.79543 -2.702388,1.110059 -3.585506,0.62027 -7.20885,-1.483807 -3.675309,-2.095087 -6.340826,-6.346093 -0.666377,-1.062749 -1.176862,-2.152465 -0.562453,-1.080741 -0.930109,-2.034526 -0.419616,-0.944795 -0.635823,-1.657054 -0.246494,-0.760562 -0.332918,-1.173977 l 4.672035,0.102055 q 0.03864,0.79652 0.59221,2.414261 0.501599,1.626719 1.864649,3.800531 1.18131,1.88397 2.891144,3.141045 1.657862,1.266051 3.372669,0.969401 0.883386,-0.152821 1.377176,-0.559525 0.463503,-0.455006 0.641331,-1.181889 0.09558,-0.766183 -0.04255,-1.813231 -0.138119,-1.047035 -0.466606,-2.489532 -0.393233,-1.913204 -0.544144,-3.439948 -0.202882,-1.517768 0.126666,-2.645721 0.299267,-1.176242 1.317135,-1.941348 0.965904,-0.756116 2.888564,-1.088724 3.741401,-0.647239 7.299721,1.628727 3.528032,2.227664 6.526733,7.010038 2.09001,3.333179 2.647752,5.325023 0.609716,1.982852 0.721988,2.713078 l -4.672042,-0.102055 q -0.172854,-0.826843 -0.609439,-2.625463 -0.436586,-1.798621 -2.193403,-4.600419 z m -10.743867,-23.289244 -39.492527,6.83196 -3.64839,-4.34871 13.82238,-2.39119 q -1.30717,-1.16608 -2.4454,-2.52204 -1.22048,-1.39527 -2.09889,-2.79616 -1.87798,-2.99504 -2.18451,-5.13742 -0.35851,-2.13341 0.57737,-3.58044 0.85364,-1.48634 2.83715,-2.36494 1.9835,-0.87861 4.73759,-1.35505 l 15.173438,-2.62491 2.81697,4.49254 -14.134168,2.44513 q -2.49426,0.43149 -4.04901,1.07527 -1.58503,0.59549 -2.22192,1.50887 -0.63689,0.91338 -0.34731,2.20197 0.23761,1.29756 1.35834,3.08491 0.45435,0.72461 1.04292,1.47953 0.58857,0.75494 1.19881,1.45258 0.52799,0.65831 1.04735,1.21102 0.48909,0.50442 0.74446,0.72796 l 22.448383,-3.88343 z m -51.333207,-34.09865 -5.96712,-9.51646 4.05318,-0.70117 5.96712,9.51645 12.47133,-2.15746 q 2.0266,-0.35059 3.19591,-0.87415 1.11735,-0.51458 1.53333,-1.2291 0.36402,-0.70554 0.13058,-1.629 -0.23343,-0.92346 -0.96039,-2.08283 -1.27218,-2.02889 -2.49711,-3.15565 -1.30717,-1.16609 -1.81793,-1.6132 l 3.456,-1.56171 q 0.78781,0.61337 2.36758,2.21422 1.63176,1.59186 2.99481,3.76567 1.60537,2.56026 1.99,4.36787 0.30235,1.76828 -0.46458,3.02544 -0.76694,1.25716 -2.52092,2.04251 -1.83623,0.74604 -4.53835,1.21349 l -24.11123,4.17109 -3.64839,-4.34871 z m -13.8909,-46.03758 q 3.22176,-0.55734 6.36518,-0.13729 3.14341,0.42005 6.01368,1.69056 2.83997,1.2222 5.24229,3.21622 2.35038,2.00301 3.95574,4.56327 1.60537,2.56028 1.9811,4.90489 0.32378,2.3536 -0.54736,4.27133 -0.90142,1.86945 -2.95438,3.18844 -2.05298,1.319 -5.27474,1.87635 -3.1698,0.54835 -6.31321,0.1283 -3.19538,-0.41107 -6.03536,-1.63328 -2.87026,-1.27049 -5.22062,-3.27351 -2.40233,-1.99402 -4.0077,-4.55429 -1.60537,-2.56026 -1.92914,-4.91386 -0.37574,-2.34461 0.52569,-4.21404 0.87113,-1.91775 2.97607,-3.24574 2.05297,-1.31899 5.22276,-1.86735 z m 2.93813,4.68577 q -4.57282,0.79107 -6.01138,3.1818 -1.52081,2.35142 0.5389,5.63629 2.05973,3.28487 5.97345,4.7497 3.83146,1.42551 8.40428,0.63444 4.57282,-0.79107 6.09363,-3.14249 1.43857,-2.39074 -0.62116,-5.67561 -2.05971,-3.28487 -5.89118,-4.71038 -3.91372,-1.46482 -8.48654,-0.67375 z m -24.01844,-15.79874 q -1.38498,-1.4739 -3.45803,-3.95326 -2.07304,-2.47936 -4.16305,-5.81254 -1.87798,-2.99503 -2.18451,-5.13742 -0.35851,-2.1334 0.57737,-3.58043 0.85363,-1.48634 2.83715,-2.36494 1.9835,-0.87862 4.73759,-1.35505 l 15.17344,-2.62492 2.81697,4.49255 -14.13417,2.44512 q -2.49426,0.43149 -4.04901,1.07528 -1.58503,0.59548 -2.22192,1.50886 -0.63689,0.91338 -0.34731,2.20197 0.23761,1.29756 1.35834,3.08492 0.45435,0.7246 0.99094,1.48852 0.53661,0.76393 1.09489,1.47055 0.47601,0.6673 0.94343,1.22901 0.43712,0.5134 0.64052,0.74594 l 22.81213,-3.94636 2.81697,4.49255 z"
       inkscape:export-filename="rushguitarsLogo.png"
       inkscape:export-xdpi="45.1318"
       inkscape:export-ydpi="45.1318" />
  </g>
</svg>
